<svg width="54" height="12" viewBox="0 0 54 12" fill="none" xmlns="http://www.w3.org/2000/svg">
<path d="M54 11.6238H52.5314L50.0084 8.61442L47.523 11.6238H46.0544L49.2929 7.74922L46.2427 4.10031H47.7113L50.046 6.88401L52.3808 4.10031H53.8494L50.7992 7.74922L54 11.6238ZM41.5356 12C39.2385 12 37.3933 10.1567 37.3933 7.86207C37.3933 5.5674 39.2385 3.72414 41.5356 3.72414C43.8326 3.72414 45.6778 5.5674 45.6778 7.86207C45.6778 10.1567 43.795 12 41.5356 12ZM41.5356 4.85266C39.8787 4.85266 38.523 6.2069 38.523 7.86207C38.523 9.51724 39.8787 10.8715 41.5356 10.8715C43.1925 10.8715 44.5481 9.51724 44.5481 7.86207C44.5481 6.2069 43.1925 4.85266 41.5356 4.85266ZM31.9331 11.8119C29.5983 11.8119 28.9205 11.2476 28.9205 11.2476V0.338558H30.0502V4.2884C30.4644 4.10031 31.0669 3.91223 31.9331 3.91223C34.2301 3.91223 36.0753 5.5674 36.0753 7.86207C36.0753 10.1567 34.1925 11.8119 31.9331 11.8119ZM31.9331 5.04075C31.1423 5.04075 30.5021 5.34169 30.0502 5.64263V10.3072C30.0502 10.3072 30.6527 10.6834 31.9331 10.6834C33.59 10.6834 34.9456 9.51724 34.9456 7.86207C34.9456 6.2069 33.59 5.04075 31.9331 5.04075ZM25.1548 0.338558H26.2845V11.6238H25.1548V0.338558ZM21.3891 0.338558H22.5188V11.6238H21.3891V0.338558ZM18.1506 2.03135C17.6234 2.03135 17.2092 1.61756 17.2092 1.09091C17.2092 0.564263 17.6234 0.15047 18.1506 0.15047C18.6778 0.15047 19.0921 0.564263 19.0921 1.09091C19.0921 1.61756 18.6778 2.03135 18.1506 2.03135ZM14.4226 11.6238L10.4686 7.67398L14.046 4.10031H15.6276L12.0502 7.67398L16.0042 11.6238H14.4226ZM9.33891 11.6238V0.338558H10.4686V7.67398V11.6238H9.33891ZM7.53138 8.5768C7.53138 10.4577 6.0251 11.8119 3.65272 11.8119C2.10879 11.8119 0.903766 11.0596 0 10.1944L0.790795 9.32915C1.54393 10.0439 2.41004 10.721 3.61506 10.721C4.97071 10.721 6.40167 9.96865 6.40167 8.61442C6.40167 7.48589 5.49791 6.77116 3.65272 6.2069C1.50628 5.52978 0.451883 4.66458 0.451883 2.97179C0.451883 1.31661 1.84519 0 3.841 0C5.30962 0 6.25105 0.639498 7.15481 1.42947L6.36402 2.29467C5.53556 1.61755 4.78243 1.12853 3.87866 1.12853C2.74895 1.12853 1.61925 1.88088 1.61925 2.93417C1.61925 3.91223 2.1841 4.51411 4.14226 5.11599C5.87448 5.64263 7.53138 6.50784 7.53138 8.5768ZM18.7531 11.6238H17.6234V4.10031H18.7531V11.6238Z" fill="black"/>
</svg>
